<?xml version="1.0" encoding="UTF-8" standalone="no"?>
<svg
   width="157.81377mm"
   height="56.202312mm"
   viewBox="0 0 157.81377 56.202314"
   version="1.1"
   id="svg130"
   inkscape:version="1.2 (dc2aedaf03, 2022-05-15)"
   sodipodi:docname="AnyBodyTutorials2.svg"
   xmlns:inkscape="http://www.inkscape.org/namespaces/inkscape"
   xmlns:sodipodi="http://sodipodi.sourceforge.net/DTD/sodipodi-0.dtd"
   xmlns="http://www.w3.org/2000/svg"
   xmlns:svg="http://www.w3.org/2000/svg"
   xmlns:rdf="http://www.w3.org/1999/02/22-rdf-syntax-ns#"
   xmlns:cc="http://creativecommons.org/ns#"
   xmlns:dc="http://purl.org/dc/elements/1.1/">
  <defs
     id="defs124" />
  <sodipodi:namedview
     id="base"
     pagecolor="#ffffff"
     bordercolor="#666666"
     borderopacity="1.0"
     inkscape:pageopacity="0.0"
     inkscape:pageshadow="2"
     inkscape:zoom="1.0536413"
     inkscape:cx="331.23226"
     inkscape:cy="15.185433"
     inkscape:document-units="mm"
     inkscape:current-layer="layer1"
     showgrid="false"
     inkscape:window-width="1920"
     inkscape:window-height="1009"
     inkscape:window-x="-8"
     inkscape:window-y="-8"
     inkscape:window-maximized="1"
     inkscape:document-rotation="0"
     fit-margin-top="0"
     fit-margin-left="0"
     fit-margin-right="0"
     fit-margin-bottom="0"
     inkscape:showpageshadow="2"
     inkscape:pagecheckerboard="0"
     inkscape:deskcolor="#d1d1d1"
     showguides="true">
    <sodipodi:guide
       position="150.24671,74.218776"
       orientation="1,0"
       id="guide1102"
       inkscape:locked="false" />
    <sodipodi:guide
       position="96.252186,18.245378"
       orientation="0,-1"
       id="guide1104"
       inkscape:locked="false" />
    <sodipodi:guide
       position="57.637404,0.2009944"
       orientation="0,-1"
       id="guide1106"
       inkscape:locked="false" />
    <sodipodi:guide
       position="58.394659,15.497536"
       orientation="0,-1"
       id="guide1110"
       inkscape:locked="false" />
  </sodipodi:namedview>
  <metadata
     id="metadata127">
    <rdf:RDF>
      <cc:Work
         rdf:about="">
        <dc:format>image/svg+xml</dc:format>
        <dc:type
           rdf:resource="http://purl.org/dc/dcmitype/StillImage" />
      </cc:Work>
    </rdf:RDF>
  </metadata>
  <g
     inkscape:label="Layer 1"
     inkscape:groupmode="layer"
     id="layer1"
     transform="translate(-31.565002,-38.024777)">
    <g
       id="g7924"
       transform="matrix(0.96621821,0,0,0.96621821,6.3975531,-2.7327057)">
      <path
         inkscape:connector-curvature="0"
         id="path143"
         style="fill:#953337;fill-opacity:1;fill-rule:evenodd;stroke-width:0.576997"
         d="m 65.616239,52.156211 h -2.76676 c -0.151635,0 -0.265303,0.07582 -0.379029,0.151635 -0.113726,0.113668 -0.151578,0.227395 -0.151578,0.37903 l 0.113669,16.070068 -7.504428,-16.259612 c -0.03791,-0.113669 -0.07582,-0.227395 -0.189486,-0.265303 -0.03791,-0.07582 -0.151635,-0.07582 -0.265303,-0.07582 h -3.48691 c -0.151635,0 -0.265362,0.07582 -0.341121,0.151635 -0.113726,0.113668 -0.189544,0.227395 -0.189544,0.37903 v 21.944767 c 0,0.113726 0.07582,0.265303 0.189544,0.37903 0.07576,0.113668 0.189486,0.151577 0.341121,0.151577 h 2.804668 c 0.151578,0 0.265304,-0.03791 0.37903,-0.151577 0.07576,-0.113727 0.151577,-0.265304 0.151577,-0.37903 L 54.170112,58.637334 61.67454,74.859038 c 0,0.113726 0.113668,0.151635 0.151577,0.189543 0.113726,0.07576 0.227452,0.113669 0.341121,0.113669 h 3.449001 c 0.189544,0 0.265304,-0.03791 0.37903,-0.151577 0.113726,-0.113727 0.151577,-0.265304 0.151577,-0.37903 V 52.686876 c 0,-0.151635 -0.03785,-0.265362 -0.151577,-0.37903 -0.113726,-0.07582 -0.189486,-0.151635 -0.37903,-0.151635 z" />
      <path
         inkscape:connector-curvature="0"
         id="path145"
         style="fill:#953337;fill-opacity:1;fill-rule:evenodd;stroke-width:0.576997"
         d="m 75.887485,51.890908 c -0.113726,-0.151577 -0.189486,-0.189486 -0.303212,-0.265304 -0.151578,-0.03791 -0.265304,-0.03791 -0.416939,0.07582 L 72.5143,53.065847 c -0.151634,0.03791 -0.265361,0.151635 -0.265361,0.303213 -0.03785,0.151634 -0.03785,0.265303 0.07582,0.416938 l 7.011729,12.545307 v 8.300338 c 0,0.113726 0.03791,0.265303 0.151635,0.37903 0.07576,0.113668 0.189486,0.151577 0.341063,0.151577 h 2.804727 c 0.151577,0 0.265303,-0.03791 0.378972,-0.151577 0.113726,-0.113727 0.151635,-0.265304 0.151635,-0.37903 v -8.300338 l 7.049638,-12.545307 c 0.03791,-0.07582 0.03791,-0.189544 0.03791,-0.265304 0,-0.07582 0,-0.189543 -0.03791,-0.265303 -0.03791,-0.07582 -0.151635,-0.151635 -0.227395,-0.189544 L 87.33367,51.701422 c -0.113726,-0.113726 -0.265304,-0.113726 -0.37903,-0.07582 -0.151635,0.07582 -0.265303,0.113727 -0.303212,0.265304 l -5.382,10.384971 z" />
      <path
         inkscape:connector-curvature="0"
         id="path147"
         style="fill:#953337;fill-opacity:1;fill-rule:evenodd;stroke-width:0.576997"
         d="m 33.362318,46.129935 c -0.113727,0.07582 -0.151578,0.151635 -0.227395,0.303212 l -7.087547,27.857375 v 0.324734 c 0.0097,0.02937 0.02193,0.06012 0.03791,0.0922 0.07582,0.07582 0.189486,0.189485 0.341121,0.189485 l 2.76676,0.795968 c 0.07582,0 0.151634,0.07576 0.265361,0 0.07576,0 0.151577,-0.03791 0.265303,-0.151635 0.07576,-0.03791 0.113668,-0.151577 0.113668,-0.227394 l 2.122485,-8.831003 h 6.784335 l 2.160336,8.831003 c 0,0.07582 0.03791,0.189486 0.07582,0.227394 0.07582,0.113727 0.189485,0.151635 0.265303,0.151635 0.07582,0.07576 0.189486,0.07576 0.265303,0 l 2.766818,-0.72015 c 0.151577,-0.07582 0.265303,-0.189486 0.303212,-0.265303 0.113669,-0.151635 0.113669,-0.265304 0.113669,-0.416939 l -7.125401,-27.85737 c -0.03791,-0.151577 -0.113727,-0.227394 -0.189544,-0.303212 -0.108303,-0.07224 -0.216663,-0.110437 -0.324965,-0.113726 -0.0054,-1.15e-4 -0.01073,0 -0.01616,0 h -3.37318 c -0.0072,0 -0.01373,-1.15e-4 -0.0206,0 -0.141018,0.0033 -0.246493,0.04149 -0.282612,0.113726 z m -0.530607,16.79022 2.539365,-10.536492 2.463606,10.536492 z" />
      <path
         inkscape:connector-curvature="0"
         id="path150"
         style="fill:#999999;fill-opacity:1;fill-rule:evenodd;stroke-width:0.576997"
         d="m 157.33718,56.818061 c -0.68224,-1.705546 -1.78136,-2.918395 -3.2216,-3.638487 -1.36443,-0.644333 -3.10789,-1.023363 -5.26828,-1.023363 h -6.3674 c -0.15157,0 -0.2653,0.07582 -0.37903,0.151635 -0.0758,0.113668 -0.15157,0.227395 -0.15157,0.37903 v 21.944767 c 0,0.113726 0.0758,0.265303 0.15157,0.37903 0.11373,0.113668 0.22746,0.151577 0.37903,0.151577 h 6.3674 c 2.691,-0.03791 4.69976,-0.530607 6.06419,-1.478152 1.40239,-0.985396 2.31197,-2.425639 2.84263,-4.207003 0.41688,-1.743455 0.64428,-3.714305 0.56852,-6.102093 0,-2.728909 -0.30322,-4.927154 -0.98546,-6.556941 z m -3.60063,1.89509 c 0.37903,1.137031 0.60642,2.842578 0.60642,4.965063 0,2.008758 -0.15158,3.638487 -0.53061,4.851336 v -0.03791 c -0.30321,1.099122 -0.83382,1.89509 -1.51606,2.425697 -0.758,0.454789 -1.66764,0.682242 -2.76676,0.682242 h -3.7143 V 55.756848 h 3.63848 c 1.02337,0 1.933,0.151577 2.6531,0.606424 0.758,0.454789 1.28866,1.212848 1.62973,2.349879 z" />
      <path
         inkscape:connector-curvature="0"
         id="path152"
         style="fill:#999999;fill-opacity:1;fill-rule:evenodd;stroke-width:0.576997"
         d="m 81.269428,49.995875 c -0.758002,0 -1.326517,0.265304 -1.857124,0.758002 -0.454847,0.530606 -0.720151,1.137031 -0.720151,1.819272 0,0.758002 0.265304,1.402335 0.720151,1.857182 0.530607,0.530607 1.099122,0.79591 1.857124,0.79591 0.682241,0 1.326574,-0.265303 1.857181,-0.79591 0.454847,-0.454847 0.72015,-1.09918 0.72015,-1.857182 0,-0.682241 -0.265303,-1.288666 -0.72015,-1.819272 -0.530607,-0.492698 -1.17494,-0.758002 -1.857181,-0.758002 z" />
      <path
         inkscape:connector-curvature="0"
         id="path154"
         style="fill:#999999;fill-opacity:1;fill-rule:evenodd;stroke-width:0.576997"
         d="m 96.316249,46.167844 c -0.113726,0.113726 -0.151635,0.265303 -0.151635,0.37903 v 28.084769 c 0,0.113726 0.03791,0.265303 0.151635,0.37903 0.113669,0.113668 0.265304,0.151577 0.378972,0.151577 h 9.096309 c 1.36448,0 2.65309,-0.303212 3.79012,-0.947488 1.17494,-0.606424 2.04667,-1.629786 2.72891,-2.994212 0.68218,-1.250757 1.0233,-2.956304 1.0233,-5.002971 0.0379,-1.781364 -0.2653,-3.297424 -1.0233,-4.586033 -0.56852,-1.061271 -1.44024,-1.932999 -2.72891,-2.615182 0.75806,-0.568516 1.32657,-1.212849 1.70555,-2.008759 0.49275,-0.985454 0.75806,-2.160394 0.75806,-3.373242 -0.0379,-1.629729 -0.34113,-2.994155 -0.98546,-4.093335 -0.64433,-1.174939 -1.47815,-2.008758 -2.53936,-2.577274 -0.97005,-0.634293 -2.04996,-0.93814 -3.13195,-0.947545 -0.0171,-1.15e-4 -0.0346,0 -0.0517,0 h -8.641519 c -0.0052,0 -0.01044,-1.15e-4 -0.01593,0 -0.111649,0.0035 -0.254744,0.04327 -0.363047,0.151635 z m 3.752211,3.411093 h 3.4111 c 1.59187,0 2.72891,0.265303 3.52482,0.909636 0.68224,0.568516 1.06121,1.629787 1.06121,3.14579 0,1.326575 -0.2653,2.311971 -0.83382,2.956304 -0.64433,0.644333 -1.59182,0.947545 -2.91839,0.947545 h -4.24492 z m 8.11086,12.659034 c 0.758,0.720092 1.13703,2.046667 1.21284,3.941699 -0.0758,1.89509 -0.37903,3.259516 -1.06127,4.131244 -0.68218,0.871727 -1.59182,1.288666 -2.69094,1.288666 h -5.57149 V 61.10094 h 4.77552 c 1.36449,0 2.46361,0.378971 3.33534,1.137031 z" />
      <path
         inkscape:connector-curvature="0"
         id="path156"
         style="fill:#999999;fill-opacity:1;fill-rule:evenodd;stroke-width:0.576997"
         d="m 123.26399,52.838453 c -1.25076,0.758001 -2.31197,2.008758 -3.14579,3.752214 -0.83382,1.743455 -1.25076,4.093334 -1.25076,7.087547 0,3.032063 0.45485,5.381943 1.25076,7.125398 0.83382,1.743455 1.89503,2.994212 3.22161,3.676454 1.25075,0.758001 2.50145,1.099122 3.82803,1.061213 1.62973,0 2.9563,-0.379029 4.05542,-1.061213 1.06122,-0.720151 1.85713,-1.629787 2.46355,-2.691 0.53066,-1.023363 0.94755,-2.084576 1.21285,-3.183699 0.2653,-1.137031 0.41694,-2.122485 0.49275,-3.032121 0.0379,-0.871727 0.0758,-1.51606 0.0379,-1.895032 v -0.03791 c 0,-2.994212 -0.41688,-5.382001 -1.2507,-7.049638 -0.83382,-1.781364 -1.89509,-3.069973 -3.22161,-3.752214 -1.25076,-0.720093 -2.53942,-1.099122 -3.79012,-1.023305 -1.36449,-0.07582 -2.691,0.303212 -3.90385,1.023305 z m 1.70554,3.449002 c 0.56852,-0.530607 1.25076,-0.795911 2.19831,-0.795911 0.90963,0 1.62973,0.265304 2.19824,0.795911 0.53061,0.530606 1.02336,1.212848 1.32658,1.970849 0.2653,0.909637 0.5306,1.819273 0.64427,2.766818 0.11373,0.985454 0.15164,1.819273 0.15164,2.653092 0,0.79591 -0.0379,1.705546 -0.15164,2.653091 -0.11367,0.947488 -0.37897,1.819215 -0.64427,2.728852 -0.30322,0.795967 -0.79597,1.478151 -1.32658,2.046667 -0.56851,0.492756 -1.28861,0.682242 -2.19824,0.758059 -0.94755,-0.07582 -1.62979,-0.265303 -2.19831,-0.795968 v 0.03791 c -0.60642,-0.568516 -1.06121,-1.2507 -1.36442,-2.046667 -0.2653,-0.909637 -0.4927,-1.781364 -0.60643,-2.728852 -0.15157,-0.947545 -0.18948,-1.857181 -0.18948,-2.653091 0,-0.833819 0.0379,-1.667638 0.18948,-2.653092 0.11373,-0.947545 0.34113,-1.857181 0.60643,-2.766818 0.30321,-0.758001 0.758,-1.440243 1.36442,-1.97085 z" />
      <path
         inkscape:connector-curvature="0"
         id="path158"
         style="fill:#999999;fill-opacity:1;fill-rule:evenodd;stroke-width:0.576997"
         d="m 163.02239,53.36906 c -0.0379,0.151634 -0.0379,0.265303 0.0379,0.416938 l 7.01173,12.545307 v 8.300338 c 0,0.113726 0.0379,0.265303 0.15163,0.37903 0.11367,0.113668 0.2274,0.151577 0.37903,0.151577 h 2.76676 c 0.18949,0 0.2653,-0.03791 0.37903,-0.151577 0.11367,-0.113727 0.15158,-0.265304 0.15158,-0.37903 v -8.300338 l 7.04964,-12.545307 c 0.0628,-0.06283 0.074,-0.151924 0.0758,-0.223529 4.1e-4,-0.01494 0,-0.02879 0,-0.04178 0,-0.01298 4.1e-4,-0.02746 0,-0.04241 -0.002,-0.0716 -0.013,-0.160117 -0.0758,-0.222894 -0.0379,-0.07582 -0.15164,-0.151635 -0.18949,-0.189544 l -2.691,-1.364425 c -0.11373,-0.113726 -0.2653,-0.113726 -0.37903,-0.07582 -0.15158,0.07582 -0.2653,0.113727 -0.30321,0.265304 L 172.00501,62.275871 166.66092,51.8909 c -0.11372,-0.151577 -0.22739,-0.189486 -0.34112,-0.265304 -0.15158,-0.03791 -0.2653,-0.03791 -0.41688,0.07582 l -2.61518,1.364425 c -0.15164,0.03791 -0.26531,0.151635 -0.26531,0.303213 z" />
      <text
         id="text185"
         y="55.829723"
         x="183.06335"
         style="font-size:6.92397px;fill:#999999;fill-opacity:1;stroke-width:0.576997"><tspan
           style="font-size:4.61598px;font-family:Arial;fill:#999999;fill-opacity:1;stroke-width:0.576997"
           id="tspan183"
           font-size="8.0000">TM</tspan></text>
    </g>
    <flowRoot
       style="font-style:normal;font-weight:normal;font-size:40px;line-height:125%;font-family:sans-serif;letter-spacing:0px;word-spacing:0px;fill:#000000;fill-opacity:1;stroke:none;stroke-width:1px;stroke-linecap:butt;stroke-linejoin:miter;stroke-opacity:1"
       id="flowRoot364"
       xml:space="preserve"
       transform="matrix(0.57699736,0,0,0.57699736,-0.12193543,26.38924)"><flowRegion
         id="flowRegion366"><rect
           y="91.153938"
           x="-57.578693"
           height="272.74118"
           width="850.54846"
           id="rect368" /></flowRegion><flowPara
         id="flowPara370" /></flowRoot>
    <text
       id="text3009"
       y="93.537628"
       x="96.181519"
       style="font-style:oblique;font-variant:normal;font-weight:normal;font-stretch:normal;font-size:2.85451px;line-height:0%;font-family:Candara;-inkscape-font-specification:'Candara Oblique';text-align:start;letter-spacing:1.0934px;word-spacing:0px;writing-mode:lr-tb;text-anchor:start;fill:#ffffff;fill-opacity:1;stroke:#4d4d4d;stroke-width:0.451964;stroke-miterlimit:4;stroke-dasharray:none;stroke-opacity:1"
       xml:space="preserve"
       transform="scale(0.99812254,1.001881)"><tspan
         style="font-style:normal;font-variant:normal;font-weight:normal;font-stretch:normal;font-size:20.2988px;line-height:1.25;font-family:Arial;-inkscape-font-specification:'Arial, Normal';font-variant-ligatures:normal;font-variant-caps:normal;font-variant-numeric:normal;font-feature-settings:normal;text-align:start;word-spacing:0px;writing-mode:lr-tb;text-anchor:start;fill:#ffffff;fill-opacity:1;stroke:#4d4d4d;stroke-width:0.451964;stroke-miterlimit:4;stroke-dasharray:none;stroke-opacity:1"
         y="93.537628"
         x="96.181519"
         id="tspan3011"
         sodipodi:role="line"
         dx="0">Tutorials</tspan></text>
    <g
       id="g1038"
       transform="matrix(0.1919418,0,0,0.1919418,-12.588737,24.41249)"
       style="stroke:#3e4862;stroke-opacity:1">
      <path
         inkscape:connector-curvature="0"
         id="path3043"
         d="m 373.22702,362.40959 c 0,0 51.11992,-13.30948 80.36012,-7.76386 0,0 5.54556,-7.8647 1.61326,-22.38413 l 25.30789,-2.01659 -85.60319,-49.30558 -99.11419,1.91575 24.09796,14.92276 c 0,0 -12.70435,4.03317 -14.01513,20.77086 0,0 59.18619,22.08164 67.35328,43.86079"
         style="fill:#3e4862;fill-opacity:1;fill-rule:nonzero;stroke:#3e4862;stroke-opacity:1" />
      <path
         inkscape:connector-curvature="0"
         id="path3045"
         d="m 319.48555,297.47545 62.71519,37.10523 73.70545,-2.31908 c 0,0 3.52899,15.12441 -2.31905,22.38413 0,0 -31.66007,-4.43649 -80.56178,8.46966 0,0 -5.04142,-20.06505 -67.15162,-44.56659 0,0 0,-15.4269 13.61181,-21.07335"
         style="fill:#595f79;fill-opacity:1;fill-rule:nonzero;stroke:#3e4862;stroke-opacity:1" />
      <path
         inkscape:connector-curvature="0"
         id="path3047"
         d="m 276.73437,328.02677 c -1.91573,10.08293 28.43357,22.78743 28.43357,22.78743 0,0 4.13396,3.93235 -1.31076,1.31079 -14.51928,-7.05805 -11.3936,-4.63815 -8.16709,-1.71411 3.2265,2.92406 1.61324,8.26802 -4.63811,-0.50414 0,0 -4.03312,-3.52903 -4.13395,-0.10086 -0.20166,3.32737 -0.80662,6.75557 -4.73893,4.23484 -4.03314,-2.52074 -8.46957,-14.62027 -10.18365,-11.09123 -1.51243,3.32737 -4.63811,9.88128 -6.15053,4.94064 -1.61325,-4.83982 -1.41159,-6.15061 -3.02485,-3.32738 -1.61325,2.82323 -3.22649,6.25142 -4.94057,-2.82323 -1.91574,-9.07465 -1.10912,0.90747 -3.12569,3.42821 -2.01657,2.62156 -3.93231,-15.52774 -7.76377,-6.04977 -0.90745,2.0166 -4.94059,7.25972 -3.529,3.12572 1.4116,-4.03318 4.33563,-17.84681 12.30106,-28.83721 7.8646,-11.09125 35.28988,-4.83982 35.28988,-4.83982 9.98201,1.41161 28.53441,1.41161 31.15594,-13.30948 2.52071,-14.72109 19.86316,-10.18376 19.86316,-10.18376 19.66152,3.52903 41.33959,14.31777 41.33959,14.31777 0,0 6.55383,-1.81493 9.78035,2.31908 3.42816,4.23483 1.41159,9.47795 -6.04971,5.8481 0,0 -4.83975,-2.52074 -4.83975,-6.75557 0,0 -27.52612,-10.58708 -33.1725,-11.79705 -5.64638,-1.10911 -19.96398,-3.73069 -22.98884,3.12572 -3.02485,6.95724 0.30249,16.83851 -23.19051,19.96422 0,0 -5.94886,0.10085 -9.57868,-0.50415 0,0 -13.20849,-2.31907 -16.63666,16.43521"
         style="fill:#a7a6a6;fill-opacity:1;fill-rule:nonzero;stroke:none;stroke-opacity:1" />
    </g>
  </g>
</svg>
