<?xml version="1.0" encoding="UTF-8" standalone="no"?>
<!-- Created with Inkscape (http://www.inkscape.org/) -->

<svg
   width="339.6954"
   height="298.79126"
   id="svg3313"
   version="1.1"
   inkscape:version="1.2 (dc2aedaf03, 2022-05-15)"
   sodipodi:docname="AnyBodyTutorials3.svg"
   inkscape:export-filename="C:\Users\mel\Documents\AnyBodySource\anybody_tutorials\_static\anybody_tutorials_logo.png"
   inkscape:export-xdpi="41.782955"
   inkscape:export-ydpi="41.782955"
   xmlns:inkscape="http://www.inkscape.org/namespaces/inkscape"
   xmlns:sodipodi="http://sodipodi.sourceforge.net/DTD/sodipodi-0.dtd"
   xmlns="http://www.w3.org/2000/svg"
   xmlns:svg="http://www.w3.org/2000/svg"
   xmlns:rdf="http://www.w3.org/1999/02/22-rdf-syntax-ns#"
   xmlns:cc="http://creativecommons.org/ns#"
   xmlns:dc="http://purl.org/dc/elements/1.1/">
  <defs
     id="defs3315" />
  <sodipodi:namedview
     id="base"
     pagecolor="#ffffff"
     bordercolor="#000000"
     borderopacity="1"
     inkscape:pageopacity="0"
     inkscape:pageshadow="2"
     inkscape:zoom="1.4497623"
     inkscape:cx="-20.003279"
     inkscape:cy="117.95037"
     inkscape:document-units="px"
     inkscape:current-layer="layer1"
     showgrid="false"
     fit-margin-top="1"
     fit-margin-left="1"
     fit-margin-right="1"
     fit-margin-bottom="1"
     inkscape:window-width="1350"
     inkscape:window-height="1041"
     inkscape:window-x="311"
     inkscape:window-y="220"
     inkscape:window-maximized="0"
     showguides="true"
     inkscape:guide-bbox="true"
     showborder="true"
     borderlayer="true"
     inkscape:showpageshadow="true"
     inkscape:snap-global="false"
     inkscape:pagecheckerboard="true"
     scale-x="0.4"
     inkscape:deskcolor="#d1d1d1" />
  <metadata
     id="metadata3318">
    <rdf:RDF>
      <cc:Work
         rdf:about="">
        <dc:format>image/svg+xml</dc:format>
        <dc:type
           rdf:resource="http://purl.org/dc/dcmitype/StillImage" />
      </cc:Work>
    </rdf:RDF>
  </metadata>
  <g
     inkscape:label="Layer 1"
     inkscape:groupmode="layer"
     id="layer1"
     transform="translate(-148.40739,-277.93913)">
    <g
       id="g1425"
       transform="matrix(1.0223782,0,0,1.0223782,109.32016,139.77963)">
      <path
         d="m 100.6834,219.9174 c -0.58706,0.39137 -0.782444,0.78274 -1.173816,1.56519 L 62.923519,365.28294 v 1.67628 c 0.05004,0.15161 0.113182,0.31036 0.195685,0.47596 0.391372,0.39137 0.978131,0.97813 1.760873,0.97813 l 14.282073,4.1088 c 0.391372,0 0.782743,0.39108 1.3698,0 0.391073,0 0.782444,-0.19568 1.369501,-0.78274 0.391074,-0.19568 0.586759,-0.78244 0.586759,-1.17381 L 93.444521,324.97974 H 128.4654 l 11.1517,45.58582 c 0,0.39137 0.19569,0.97813 0.39137,1.17381 0.39137,0.58706 0.97813,0.78274 1.3695,0.78274 0.39138,0.39108 0.97813,0.39108 1.36951,0 l 14.28237,-3.71743 c 0.78244,-0.39137 1.3695,-0.97813 1.56518,-1.3695 0.58676,-0.78274 0.58676,-1.3695 0.58676,-2.15224 L 122.40034,221.48259 c -0.19569,-0.78245 -0.58706,-1.17382 -0.97843,-1.56519 -0.55906,-0.3729 -1.11841,-0.57008 -1.67747,-0.58706 -0.0277,-5.9e-4 -0.0554,0 -0.0834,0 h -17.41245 c -0.0369,0 -0.0709,-5.9e-4 -0.10633,0 -0.72794,0.017 -1.27241,0.21416 -1.45886,0.58706 z m -2.739003,86.67146 13.108253,-54.38958 12.71719,54.38958 z"
         style="fill:#953337;fill-opacity:1;fill-rule:evenodd;stroke-width:2.97847"
         id="path147"
         inkscape:connector-curvature="0" />
      <g
         id="g20096">
        <path
           style="fill:#ffffff;fill-opacity:1;fill-rule:evenodd;stroke:none;stroke-width:0.814993"
           d="m 302.46299,261.05159 c -9.46036,-0.0525 -15.17853,12.01701 -9.77991,19.55983 4.59212,7.67699 17.01939,7.2484 21.18982,-0.56031 4.93917,-8.43314 -1.3922,-19.71665 -11.40991,-18.99952 z"
           id="path3001-5"
           inkscape:connector-curvature="0" />
        <path
           d="M 242.47195,271.96038 H 230.7076 c -0.64476,0 -1.12809,0.32238 -1.61165,0.64476 -0.48357,0.48332 -0.64451,0.96689 -0.64451,1.61164 l 0.48332,68.33046 -31.90907,-69.1364 c -0.16119,-0.48332 -0.32238,-0.96689 -0.8057,-1.12808 -0.1612,-0.32238 -0.64476,-0.32238 -1.12808,-0.32238 h -14.82646 c -0.64476,0 -1.12833,0.32238 -1.45046,0.64476 -0.48357,0.48332 -0.80594,0.96689 -0.80594,1.61164 v 93.30988 c 0,0.48357 0.32237,1.12807 0.80594,1.61164 0.32213,0.48333 0.8057,0.64451 1.45046,0.64451 h 11.92554 c 0.64452,0 1.12808,-0.16118 1.61165,-0.64451 0.32213,-0.48357 0.64451,-1.12807 0.64451,-1.61164 l -0.64451,-68.00833 31.90907,68.97522 c 0,0.48356 0.48332,0.64475 0.64452,0.80594 0.48356,0.32214 0.96713,0.48332 1.45045,0.48332 h 14.66527 c 0.80595,0 1.12808,-0.16118 1.61165,-0.64451 0.48356,-0.48357 0.6445,-1.12807 0.6445,-1.61164 v -93.30988 c 0,-0.64475 -0.16094,-1.12832 -0.6445,-1.61164 -0.48357,-0.32238 -0.8057,-0.64476 -1.61165,-0.64476 z"
           style="fill:#953337;fill-opacity:1;fill-rule:evenodd;stroke-width:2.45341"
           id="path143"
           inkscape:connector-curvature="0" />
        <path
           d="m 281.05382,270.83231 c -0.48357,-0.64451 -0.8057,-0.8057 -1.28927,-1.12808 -0.64451,-0.16119 -1.12808,-0.16119 -1.77283,0.32238 l -11.28079,5.80157 c -0.64476,0.1612 -1.12833,0.64477 -1.12833,1.28927 -0.16093,0.64476 -0.16093,1.12808 0.32239,1.77284 l 29.8141,53.34306 v 35.29331 c 0,0.48357 0.16119,1.12807 0.64475,1.61164 0.32214,0.48333 0.8057,0.64451 1.45022,0.64451 h 11.92578 c 0.64452,0 1.12809,-0.16118 1.6114,-0.64451 0.48357,-0.48357 0.64476,-1.12807 0.64476,-1.61164 v -35.29331 l 29.9753,-53.34306 c 0.16118,-0.32238 0.16118,-0.80594 0.16118,-1.12808 0,-0.32238 0,-0.80594 -0.16118,-1.12808 -0.1612,-0.32238 -0.64477,-0.64475 -0.9669,-0.80595 l -11.28102,-5.80157 c -0.48357,-0.48357 -1.12808,-0.48357 -1.61165,-0.32238 -0.64476,0.32238 -1.12808,0.48357 -1.28927,1.12808 l -22.88445,44.15723 z"
           style="fill:#952c36;fill-opacity:1;fill-rule:evenodd;stroke-width:2.45341"
           id="path145"
           inkscape:connector-curvature="0" />
        <path
           d="m 303.09107,262.46182 c -3.22305,0 -5.64039,1.12809 -7.89655,3.22305 -1.93402,2.25616 -3.0621,4.8347 -3.0621,7.73561 0,3.22305 1.12808,5.96278 3.0621,7.8968 2.25616,2.25615 4.6735,3.38423 7.89655,3.38423 2.90092,0 5.64064,-1.12808 7.8968,-3.38423 1.93402,-1.93402 3.0621,-4.67375 3.0621,-7.8968 0,-2.90091 -1.12808,-5.47945 -3.0621,-7.73561 -2.25616,-2.09496 -4.99588,-3.22305 -7.8968,-3.22305 z"
           style="fill:#999999;fill-opacity:1;fill-rule:evenodd;stroke-width:2.45341"
           id="path152"
           inkscape:connector-curvature="0" />
      </g>
    </g>
    <g
       id="g6751"
       transform="matrix(0.92986626,0,0,0.96727804,148.00178,28.603376)">
      <g
         id="g1038"
         transform="matrix(0.72544933,0,0,0.72544933,-48.465444,128.4364)"
         style="stroke:#3e4862;stroke-opacity:1">
        <path
           inkscape:connector-curvature="0"
           id="path3043"
           d="m 373.22702,362.40959 c 0,0 51.11992,-13.30948 80.36012,-7.76386 0,0 5.54556,-7.8647 1.61326,-22.38413 l 25.30789,-2.01659 -85.60319,-49.30558 -99.11419,1.91575 24.09796,14.92276 c 0,0 -12.70435,4.03317 -14.01513,20.77086 0,0 59.18619,22.08164 67.35328,43.86079"
           style="fill:#3e4862;fill-opacity:1;fill-rule:nonzero;stroke:#3e4862;stroke-opacity:1" />
        <path
           inkscape:connector-curvature="0"
           id="path3045"
           d="m 319.48555,297.47545 62.71519,37.10523 73.70545,-2.31908 c 0,0 3.52899,15.12441 -2.31905,22.38413 0,0 -31.66007,-4.43649 -80.56178,8.46966 0,0 -5.04142,-20.06505 -67.15162,-44.56659 0,0 0,-15.4269 13.61181,-21.07335"
           style="fill:#595f79;fill-opacity:1;fill-rule:nonzero;stroke:#3e4862;stroke-opacity:1" />
        <path
           inkscape:connector-curvature="0"
           id="path3047"
           d="m 276.73437,328.02677 c -1.91573,10.08293 28.43357,22.78743 28.43357,22.78743 0,0 4.13396,3.93235 -1.31076,1.31079 -14.51928,-7.05805 -11.3936,-4.63815 -8.16709,-1.71411 3.2265,2.92406 1.61324,8.26802 -4.63811,-0.50414 0,0 -4.03312,-3.52903 -4.13395,-0.10086 -0.20166,3.32737 -0.80662,6.75557 -4.73893,4.23484 -4.03314,-2.52074 -8.46957,-14.62027 -10.18365,-11.09123 -1.51243,3.32737 -4.63811,9.88128 -6.15053,4.94064 -1.61325,-4.83982 -1.41159,-6.15061 -3.02485,-3.32738 -1.61325,2.82323 -3.22649,6.25142 -4.94057,-2.82323 -1.91574,-9.07465 -1.10912,0.90747 -3.12569,3.42821 -2.01657,2.62156 -3.93231,-15.52774 -7.76377,-6.04977 -0.90745,2.0166 -4.94059,7.25972 -3.529,3.12572 1.4116,-4.03318 4.33563,-17.84681 12.30106,-28.83721 7.8646,-11.09125 35.28988,-4.83982 35.28988,-4.83982 9.98201,1.41161 28.53441,1.41161 31.15594,-13.30948 2.52071,-14.72109 19.86316,-10.18376 19.86316,-10.18376 19.66152,3.52903 41.33959,14.31777 41.33959,14.31777 0,0 6.55383,-1.81493 9.78035,2.31908 3.42816,4.23483 1.41159,9.47795 -6.04971,5.8481 0,0 -4.83975,-2.52074 -4.83975,-6.75557 0,0 -27.52612,-10.58708 -33.1725,-11.79705 -5.64638,-1.10911 -19.96398,-3.73069 -22.98884,3.12572 -3.02485,6.95724 0.30249,16.83851 -23.19051,19.96422 0,0 -5.94886,0.10085 -9.57868,-0.50415 0,0 -13.20849,-2.31907 -16.63666,16.43521"
           style="fill:#a7a6a6;fill-opacity:1;fill-rule:nonzero;stroke:none;stroke-opacity:1" />
      </g>
    </g>
  </g>
</svg>
